<svg width="420" height="420" xmlns="http://www.w3.org/2000/svg"><defs><linearGradient x1="20.154%" y1="79.78%" x2="79.703%" y2="20.78%" id="a"><stop stop-color="#FF7D7D" offset="0%"/><stop stop-color="#E52222" offset="100%"/></linearGradient><linearGradient x1="20.358%" y1="79.83%" x2="79.365%" y2="20.842%" id="b"><stop stop-color="#47B7FF" offset="0%"/><stop stop-color="#3E97FF" offset="100%"/></linearGradient><linearGradient x1="74.476%" y1="24.701%" x2="20.046%" y2="81.155%" id="c"><stop stop-color="#E8E8E8" offset="0%"/><stop stop-color="#FFF" offset="100%"/></linearGradient><linearGradient x1="50%" y1="100%" x2="50%" y2="0%" id="d"><stop stop-color="#6F74D0" offset="0%"/><stop stop-color="#656AC8" offset="100%"/></linearGradient><linearGradient x1="50%" y1="0%" x2="50%" y2="100%" id="e"><stop stop-color="#A8DEFF" offset="0%"/><stop stop-color="#ADE0FF" offset="100%"/></linearGradient><linearGradient x1="50%" y1="58.048%" x2="50%" y2="0%" id="f"><stop stop-color="#E1F0FF" stop-opacity="0" offset="0%"/><stop stop-color="#6EAFFC" offset="100%"/></linearGradient><linearGradient x1="50%" y1="78.643%" x2="50%" y2="3.21%" id="g"><stop stop-color="#FFF" stop-opacity="0" offset="0%"/><stop stop-color="#BABABA" offset="100%"/></linearGradient></defs><g fill="none" fill-rule="evenodd"><path d="M101.716 176.077l172.712 43.205a6 6 0 0 1 4.365 4.366l43.132 172.638a3 3 0 0 1-3.638 3.638l-172.603-43.169a6 6 0 0 1-4.364-4.363L98.078 179.716a3 3 0 0 1 3.638-3.639z" fill="url(#a)" transform="rotate(-45 210 288)"/><path d="M101.716 98.077l172.712 43.205a6 6 0 0 1 4.365 4.366l43.132 172.638a3 3 0 0 1-3.638 3.638l-172.603-43.169a6 6 0 0 1-4.364-4.363L98.078 101.716a3 3 0 0 1 3.638-3.639z" fill="url(#b)" transform="rotate(-45 210 210)"/><path d="M101.716 20.077l172.712 43.205a6 6 0 0 1 4.365 4.366l43.132 172.638a3 3 0 0 1-3.638 3.638l-172.603-43.169a6 6 0 0 1-4.364-4.363L98.078 23.716a3 3 0 0 1 3.638-3.639z" fill="url(#c)" transform="rotate(-45 210 132)"/><path d="M115.04 248.99l91.927-55.138a6 6 0 0 1 6.174 0l91.863 55.137-91.865 55.106a6 6 0 0 1-6.171.001L115.04 248.99z" fill="url(#d)"/><path d="M115.04 170.99l91.927-55.138a6 6 0 0 1 6.174 0l91.863 55.137-91.865 55.106a6 6 0 0 1-6.171.001L115.04 170.99z" fill="url(#e)"/><path d="M367 210.995v76.01a2.994 2.994 0 0 1-1.287 3.567l-152.574 91.523a6 6 0 0 1-6.171.001L54.29 290.572a3.001 3.001 0 0 1-1.291-3.56v-76.027a2.988 2.988 0 0 0 1.291 1.587l152.677 91.524a6 6 0 0 0 6.171 0l152.574-91.524a3 3 0 0 0 1.287-1.577z" fill="url(#f)" opacity=".5"/><path d="M367 132.995v76.01a2.994 2.994 0 0 1-1.287 3.567l-152.574 91.523a6 6 0 0 1-6.171.001L54.29 212.572a3.001 3.001 0 0 1-1.291-3.56v-76.027a2.988 2.988 0 0 0 1.291 1.587l152.677 91.524a6 6 0 0 0 6.171 0l152.574-91.524a3 3 0 0 0 1.287-1.577z" fill="url(#g)" opacity=".4"/><path d="M180.08 209.978l26.887-16.126a6 6 0 0 1 6.174 0l26.866 16.126-26.868 16.117a6 6 0 0 1-6.171.001l-26.888-16.118z" fill="#B8AEFF"/></g></svg>